<?xml version="1.0" encoding="UTF-8"?>
<svg id="_Слой_1" data-name="Слой 1" xmlns="http://www.w3.org/2000/svg" viewBox="0 0 599.36 545.54">
  <path d="M182.93,306.31c2.79,17.9,5.44,35.14,8.26,52.36,.14,.87,1.62,1.83,2.66,2.18,1.12,.38,2.47,.09,3.72,.09,99,0,198.01-.01,297.01,.05,4.72,0,9.52,.24,14.15,1.1,11.16,2.08,17.28,8.88,18.44,20.09,.75,7.21-.49,14.15-3.36,20.83-3.04,7.08-8.4,11.01-15.91,12.03-2.83,.39-5.72,.47-8.59,.47-104.25,.02-208.5-.25-312.74,.23-22.52,.1-35.51-7.62-45.71-30.66-5.96-13.46-8.47-27.88-11.19-42.22-15.85-83.59-31.74-167.17-47.61-250.75-1.21-6.37-2.53-12.73-3.59-19.13-.41-2.46-1.43-3.22-3.91-3.19-12.61,.12-25.25-.55-37.82,.2-19.13,1.14-29.16-11.36-33.63-24.2C.39,37.95-.89,29.77,.68,21.45,2.92,9.62,12.18,1.14,24.18,.32,30.89-.14,37.65,.03,44.39,.04c17.1,.02,34.21-.18,51.31,.23,17.41,.41,29.35,9.25,33.68,26.03,3.48,13.47,5.28,27.38,7.74,41.11,1.06,5.89,2.14,11.8,2.78,17.74,.32,2.98,1.46,3.59,4.22,3.58,21.47-.1,42.95-.05,64.42-.06,72.16-.02,144.32-.04,216.48-.07,42.95-.01,85.89-.1,128.84,.04,6.82,.02,13.78,.44,20.44,1.81,19.49,4.02,28.7,18.17,23.72,37.38-3.15,12.16-7.95,23.89-12.1,35.78-11.97,34.27-23.88,68.56-36.09,102.75-2.46,6.88-5.68,13.6-9.4,19.9-7.17,12.16-18.42,18.25-32.28,19.68-3.34,.35-6.73,.34-10.1,.34-103.12,.02-206.25,.01-309.37,.01-1.73,0-3.46,0-5.76,0Zm-29.41-165.02c.15,1.49,.16,2.48,.35,3.44,6.64,34.29,13.33,68.56,19.9,102.86,.51,2.67,1.35,3.66,4.26,3.67,103.35,.12,206.71,.33,310.06,.62,3.16,0,4.52-1,5.61-3.9,12.19-32.59,24.53-65.13,36.82-97.69,.91-2.42,1.77-4.87,2.81-7.75-126.76-.42-253.04-.83-379.8-1.25Z"/>
  <path d="M201.16,544.25c-31.41-.05-57.1-25.44-57.09-56.41,.01-31.26,25.36-56,57.29-55.92,31.23,.07,56.39,25.15,56.31,56.12-.08,30.62-25.86,56.26-56.51,56.21Z"/>
  <path d="M397.32,489.05c0-31.02,25.1-55.81,56.52-55.84,32.02-.02,57.18,24.67,57.1,56.04-.08,30.71-25.96,56.3-56.93,56.28-30.91-.02-56.69-25.7-56.69-56.49Z"/>
</svg>